<?xml version="1.0" encoding="utf-8"?>
<!-- Generator: Adobe Illustrator 21.1.0, SVG Export Plug-In . SVG Version: 6.00 Build 0)  -->
<svg version="1.1" xmlns="http://www.w3.org/2000/svg" xmlns:xlink="http://www.w3.org/1999/xlink" x="0px" y="0px"
	 viewBox="0 0 300 300" style="enable-background:new 0 0 300 300;" xml:space="preserve">
<style type="text/css">
	.st0{display:none;}
	.st1{display:inline;}
	.st2{fill:#00ABBE;}
	.st3{fill:#00ABBE;stroke:#00ABBE;stroke-width:2;stroke-miterlimit:10;}
	.st4{fill:#FFFFFF;}
</style>
<g id="Layer_1" class="st0">
	<g class="st1">
		<g transform="translate(1 1)">
			<g>
				<path class="st2" d="M257.1,216.6c-4.3-2.2-8.2-4.3-12.5-6.5c-11.3-5.8-23.1-10.1-35.3-13.3V87.8c0-37.9-31-69-69-69
					s-69,31-69,69v109.4c-12,3.2-23.8,7.5-34.9,12.9c-4.3,2.2-8.2,4.3-12.5,6.5c-8.2,3.9-12.9,12.1-12.9,21.1v35.3
					c0,2.6,1.7,4.3,4.3,4.3h125h0.4h124.5c1.3,0,2.6-0.4,3.4-1.3s1.3-1.7,1.3-3v-35.3C270,229.1,264.8,220.9,257.1,216.6z M80,195.1
					V87.8c0-33.2,27.1-60.3,60.3-60.3s60.3,27.1,60.8,60.3V195c-8.5-1.8-17.2-2.9-26-3.6c-0.5,0-1.1-0.1-1.6-0.1c-0.1,0-0.1,0-0.2,0
					c-0.8,0-1.6-0.1-2.4-0.1c0,0,0,0,0,0v-22.1c12.8-12.6,21.1-32.8,21.1-55.5V92.1c0-2.6-1.7-4.3-4.3-4.3H136
					c-11.6,0-14.2-7.3-17.2-22.4c-0.4-2.2-2.2-3.4-4.3-3.4s-3.9,1.7-4.3,3.4c-3,18.5-11.6,21.5-17.7,22.4c-2.2,0.4-3.9,2.2-3.9,4.3
					v21.5c0,22.9,8.5,43.4,21.5,55.9v21.7c0,0,0,0,0,0C101.1,191.6,90.3,192.9,80,195.1z M140.5,265.2l-44.2-64.1
					c4.6-0.6,9.2-1,13.8-1.2v4.2c0,2.6,1.7,4.3,4.3,4.3s4.3-1.7,4.3-4.3v-8.6v-19.1c1.5,0.9,3.1,1.7,4.7,2.4
					c5.3,2.4,10.9,3.8,16.8,3.8c7.5,0,14.7-2.2,21.1-6v19c0,0.8,0.2,1.4,0.4,2v6.6c0,2.6,1.7,4.3,4.3,4.3c2.6,0,4.3-1.7,4.3-4.3V200
					c3.1,0.2,6.1,0.4,9.2,0.7c1.6,0.2,3.3,0.4,4.9,0.6L140.5,265.2z M191.6,206.3l12.1,22.4l-47.8,29.7L191.6,206.3z M151,172.1
					c-1.5,0.5-2.9,0.9-4.4,1.2c-1.5,0.3-3,0.5-4.5,0.5c-1,0-2,0-3,0c-1.5-0.1-3-0.3-4.5-0.5c-6-1.2-11.8-4.1-17-8.8
					c-0.4-0.4-0.8-0.7-1.3-0.9c-11.4-10.9-19-29.2-19-49.9V95.5c7.3-1.7,13.4-6.5,16.8-13.8c3.4,7.8,9.5,14.7,22,14.7h47.4v17.2
					C183.4,141.7,169.5,165.4,151,172.1z M124.8,258l-47.8-29.7L89,205.9L124.8,258z M19.6,237.8c0-5.6,3-10.8,8.2-13.8
					c3.9-2.2,8.2-3.9,12.1-6c11.2-5.5,23.2-9.9,35.6-12.9c0.1,0,0.1,0,0.2,0c0.2,0,0.3,0,0.4,0c1.6-0.4,3.2-0.8,4.8-1.2l-13,24
					c-1.3,1.7-0.4,4.3,1.3,5.6l56.5,35.3H80v-12.9c0-2.6-1.7-4.3-4.3-4.3s-4.3,1.7-4.3,4.3v12.9H19.6L19.6,237.8L19.6,237.8z
					 M261,268.8h-51.7v-12.9c0-2.6-1.7-4.3-4.3-4.3c-2.6,0-4.3,1.7-4.3,4.3v12.9h-45.3l56.5-35.3c1.7-1.3,2.6-3.4,1.3-5.6
					l-12.7-23.6c1.1,0.2,2.2,0.5,3.3,0.7c0.5,0.2,1,0.2,1.5,0.1c12.2,3,24.1,7.3,35.6,12.8c3.9,1.7,7.8,3.9,12.1,6
					c5.2,3,8.2,8.2,8.2,13.8L261,268.8L261,268.8z"/>
			</g>
		</g>
	</g>
	<g class="st1">
		<path class="st3" d="M288.6,80.5h-69.9c-2.9,0-5.2,2.3-5.2,5.2v50.3c0,2.9,2.3,5.2,5.2,5.2h2.3c2,0,3.6,1.6,3.6,3.6v7.6
			c0,0.6,0.3,1.1,0.8,1.4c0.2,0.1,0.5,0.2,0.8,0.2c0.3,0,0.6-0.1,0.8-0.2l20-12c0.6-0.3,1.2-0.5,1.9-0.5h39.7c2.9,0,5.2-2.3,5.2-5.2
			V85.6C293.8,82.8,291.5,80.5,288.6,80.5z M287.1,138h-38.6c-0.9,0-1.9,0.3-2.7,0.7l-12.6,7.5c-2.4,1.4-5.5-0.3-5.5-3.1l0,0
			c0-2.9-2.3-5.2-5.2-5.2h-2.3c-2,0-3.6-1.6-3.6-3.6V87.2c0-2,1.6-3.6,3.6-3.6h66.7c2,0,3.6,1.6,3.6,3.6v47.2
			C290.7,136.4,289.1,138,287.1,138z"/>
	</g>
	<g class="st1">
		<g>
			<path class="st2" d="M244.9,107.3c-0.2-0.6-0.7-1-1.3-1.1l-4.8-0.7l-2.2-4.4c-0.3-0.5-0.8-0.9-1.4-0.9c-0.6,0-1.1,0.3-1.4,0.9
				l-2.2,4.4l-4.8,0.7c-0.6,0.1-1.1,0.5-1.3,1.1c-0.2,0.6,0,1.2,0.4,1.6l3.5,3.4l-0.8,4.8c-0.1,0.6,0.1,1.2,0.6,1.5
				c0.3,0.2,0.6,0.3,0.9,0.3c0.2,0,0.5-0.1,0.7-0.2l4.3-2.3l4.3,2.3c0.5,0.3,1.2,0.2,1.7-0.1c0.5-0.4,0.7-0.9,0.6-1.5l-0.8-4.8
				l3.5-3.4C245,108.5,245.1,107.8,244.9,107.3z M238.2,110.6c-0.4,0.4-0.5,0.9-0.5,1.4l0.4,2.5l-2.3-1.2c-0.2-0.1-0.5-0.2-0.7-0.2
				c-0.3,0-0.5,0.1-0.7,0.2l-2.3,1.2l0.4-2.5c0.1-0.5-0.1-1-0.5-1.4l-1.8-1.8l2.5-0.4c0.5-0.1,1-0.4,1.2-0.9l1.1-2.3l1.1,2.3
				c0.2,0.5,0.7,0.8,1.2,0.9l2.5,0.4L238.2,110.6z"/>
		</g>
	</g>
	<g class="st1">
		<g>
			<path class="st2" d="M287,106.5c-0.2-0.6-0.7-1-1.3-1.1l-4.8-0.7l-2.2-4.4c-0.3-0.5-0.8-0.9-1.4-0.9s-1.1,0.3-1.4,0.9l-2.2,4.4
				l-4.8,0.7c-0.6,0.1-1.1,0.5-1.3,1.1c-0.2,0.6,0,1.2,0.4,1.6l3.5,3.4l-0.8,4.8c-0.1,0.6,0.1,1.2,0.6,1.5c0.5,0.4,1.1,0.4,1.7,0.1
				l4.3-2.3l4.3,2.3c0.2,0.1,0.5,0.2,0.7,0.2c0.3,0,0.6-0.1,0.9-0.3c0.5-0.4,0.7-0.9,0.6-1.5l-0.8-4.8l3.5-3.4
				C287,107.7,287.2,107.1,287,106.5z M279.9,111.2l0.4,2.5l-2.3-1.2c-0.5-0.2-1-0.2-1.5,0l-2.3,1.2l0.4-2.5c0.1-0.5-0.1-1-0.5-1.4
				l-1.8-1.8l2.5-0.4c0.5-0.1,1-0.4,1.2-0.9l1.1-2.3l1.1,2.3c0.2,0.5,0.7,0.8,1.2,0.9l2.5,0.4L279.9,111.2z"/>
		</g>
	</g>
	<g class="st1">
		<g>
			<path class="st2" d="M265.1,107.3c-0.2-0.6-0.7-1-1.3-1.1l-4.8-0.7l-2.2-4.4c-0.3-0.5-0.8-0.9-1.4-0.9s-1.1,0.3-1.4,0.9l-2.2,4.4
				l-4.8,0.7c-0.6,0.1-1.1,0.5-1.3,1.1c-0.2,0.6,0,1.2,0.4,1.6l3.5,3.4l-0.8,4.8c-0.1,0.6,0.1,1.2,0.6,1.5c0.5,0.4,1.1,0.4,1.7,0.1
				l4.3-2.3l4.3,2.3c0.2,0.1,0.5,0.2,0.7,0.2c0.3,0,0.6-0.1,0.9-0.3c0.5-0.4,0.7-0.9,0.6-1.5l-0.8-4.8l3.5-3.4
				C265.1,108.5,265.3,107.8,265.1,107.3z M258,112l0.4,2.5l-2.3-1.2c-0.5-0.2-1-0.2-1.5,0l-2.3,1.2l0.4-2.5c0.1-0.5-0.1-1-0.5-1.4
				l-1.8-1.8l2.5-0.4c0.5-0.1,1-0.4,1.2-0.9l1.1-2.3l1.1,2.3c0.2,0.5,0.7,0.8,1.2,0.9l2.5,0.4L258,112z"/>
		</g>
	</g>
	<g class="st1">
		<polygon class="st4" points="258.9,89.3 248.7,89.3 248.7,79 253.8,79 258.9,79 		"/>
		<g>
			<g>
				<path class="st2" d="M263.4,80.9c-0.2-0.6-0.7-1-1.3-1.1l-4.8-0.7l-2.2-4.4c-0.3-0.5-0.8-0.9-1.4-0.9s-1.1,0.3-1.4,0.9l-2.2,4.4
					l-4.8,0.7c-0.6,0.1-1.1,0.5-1.3,1.1c-0.2,0.6,0,1.2,0.4,1.6l3.5,3.4l-0.8,4.8c-0.1,0.6,0.1,1.2,0.6,1.5c0.5,0.4,1.1,0.4,1.7,0.1
					l4.3-2.3l4.3,2.3c0.2,0.1,0.5,0.2,0.7,0.2c0.3,0,0.6-0.1,0.9-0.3c0.5-0.4,0.7-0.9,0.6-1.5l-0.8-4.8l3.5-3.4
					C263.4,82.1,263.6,81.5,263.4,80.9z M256.7,84.3c-0.4,0.4-0.5,0.9-0.5,1.4l0.4,2.5l-2.3-1.2c-0.2-0.1-0.5-0.2-0.7-0.2
					s-0.5,0.1-0.7,0.2l-2.3,1.2l0.4-2.5c0.1-0.5-0.1-1-0.5-1.4l-1.8-1.8l2.5-0.4c0.5-0.1,1-0.4,1.2-0.9l1.1-2.3l1.1,2.3
					c0.2,0.5,0.7,0.8,1.2,0.9l2.5,0.4L256.7,84.3z"/>
			</g>
		</g>
	</g>
</g>
<g id="Layer_2" class="st0">
	<g class="st1">
		<path class="st2" d="M262.9,81h-24.5V20.1c0-2-1.1-3.9-2.7-5.1c-1.7-1.2-3.8-1.4-5.7-0.8l-53.2,18.8l-19.6-19.4
			c-2.4-2.4-6.3-2.4-8.8,0l-45.8,45.8l-62,22.2c-11.2,2.6-19.2,12.6-19.3,24.2v153.3c0,13.7,11.4,24.5,25.1,24.5h216.5
			c13.7,0,25.1-10.9,25.1-24.5V105.9C288,92.2,276.6,81,262.9,81z M226,28.9V81h-0.8l-38.5-38.2L226,28.9z M152.9,26.8L207.6,81
			H98.7L152.9,26.8z M81.1,81h-1.8l2.8-1L81.1,81z M262.9,271.4H46.4c-6.8,0-12.7-5.3-12.7-12.1V105.9c0-6.8,5.8-12.5,12.7-12.5
			h216.5c6.8,0,12.7,5.6,12.7,12.5v30.9h-43.1c-16.9,0-30.7,13.6-30.7,30.5v0.3v29.9c0,17.1,13.6,31.1,30.7,31.1h43.1v30.6
			C275.6,266.1,269.8,271.4,262.9,271.4z M275.6,149.2v67h-43.1c-10.3,0-18.3-8.4-18.3-18.7v-29.9c-0.1-10.1,8-18.3,18-18.4h0.3
			H275.6z"/>
		<path class="st2" d="M225.5,182.8c0,10.9,8.8,19.7,19.7,19.7s19.7-8.8,19.7-19.7s-8.8-19.7-19.7-19.7S225.5,171.9,225.5,182.8z
			 M245.2,175.5c4,0,7.3,3.3,7.3,7.3c0,4-3.3,7.3-7.3,7.3c-4,0-7.3-3.3-7.3-7.3C237.9,178.8,241.2,175.5,245.2,175.5z"/>
		<path class="st2" d="M136.1,156.2c6,0,10.9,4.9,10.9,10.9c0,3.4,2.8,6.2,6.2,6.2s6.2-2.8,6.2-6.2c0-10.7-7.3-20-17.7-22.6v-5.8
			c0-3.4-2.8-6.2-6.2-6.2c-3.4,0-6.2,2.8-6.2,6.2v6.1c-11,3.4-17.9,14.3-16.2,25.7c1.7,11.4,11.5,19.8,23,19.8
			c6,0,10.9,4.9,10.9,10.9c0,6-4.9,10.9-10.9,10.9c-6,0-10.9-4.9-10.9-10.9c0-3.4-2.8-6.2-6.2-6.2c-3.4,0-6.2,2.8-6.2,6.2
			c0,10.2,6.7,19.2,16.4,22.2v5.1c0,3.4,2.8,6.2,6.2,6.2c3.4,0,6.2-2.8,6.2-6.2v-4.8c11.4-2.8,18.9-13.7,17.5-25.4
			c-1.4-11.7-11.3-20.5-23.1-20.5c-6,0-10.9-4.8-10.9-10.8c0-6,4.8-10.9,10.8-10.9H136.1z"/>
	</g>
</g>
<g id="Layer_3">
	<g>
		<g>
			<g>
				<path class="st2" d="M273.1,250.5v-4.2c0-14.7-12-26.6-26.6-26.6H130.6l-49.9-39c-11.6-9-28.4-7-37.4,4.6l-2.6,3.3l50.9,39.8
					l-9,13.7H44.5v8.4h18.1l-21.7,33.9L48,289l24.6-38.5H120h120.8l24.6,38.5l7.1-4.5l-21.7-33.9h18.1L273.1,250.5L273.1,250.5z
					 M92.7,242.1l5.6-8.5l10.9,8.5H92.7z M122.9,242.1l-70-54.7c6.4-5.2,15.8-5.4,22.6-0.1l52.2,40.8h118.8c8.6,0,15.8,6,17.7,14
					H122.9z"/>
			</g>
		</g>
		<g>
			<g>
				<path class="st2" d="M239.6,35.8c-22.7-18.2-52-28.1-82.4-28.1s-59.6,10-82.4,28.1c-22,17.6-34.6,40.5-34.6,62.8v4.2l8.3,0
					l1.2-1.4c4.9-5.4,11.2-8.3,17.7-8.1c6.6,0.2,12.7,3.4,17.3,9.1l4.7,5.9l3.5-4.3c4.7-5.8,11.6-9.1,19.1-9.1
					c7.5,0,14.4,3.3,19.1,9.1l3.5,4.3l3.5-4.3c3.9-4.8,9.4-8,15.4-8.9v117.6h8.4V95.3c5.6,1.1,10.7,4.1,14.3,8.7l3.5,4.3l3.5-4.3
					c4.7-5.8,11.6-9.1,19.1-9.1c7.5,0,14.4,3.3,19.1,9.1l3.5,4.3l4.7-5.9c4.6-5.7,10.7-8.9,17.3-9.1c6.6-0.2,12.8,2.7,17.7,8.1
					l1.3,1.4h8.3v-4.2C274.2,76.2,261.6,53.4,239.6,35.8z M85.4,91.3c-5.2-4-11.2-6.2-17.6-6.4c-6.6-0.2-13,1.8-18.5,5.7
					c4.4-28.4,32-57.6,71.1-69.3c-5.2,4.2-10.1,9.2-14.5,15.1C94.2,52.1,86.9,71.7,85.4,91.3z M129,91.1c-5-3-10.8-4.7-16.9-4.7
					c-6.6,0-13,2-18.3,5.6c2.4-32.1,22.3-65.4,49.9-73.9c-2.8,4.9-5.3,11.5-7.6,19.9C132.1,53.1,129.6,72.1,129,91.1z M157.3,86.4
					c-7.3,0-14.2,2.4-19.9,6.7c0.4-18.9,2.8-38,6.9-52.9c5.1-19.1,10.7-24.1,13-24.1c2.3,0,7.9,5,13,24.1c4,15,6.5,34,6.9,52.9
					C171.4,88.8,164.5,86.4,157.3,86.4z M202.4,86.4c-6.1,0-11.9,1.6-16.9,4.7c-0.5-19-3.1-38-7.1-53.1c-2.2-8.3-4.8-15-7.6-19.9
					c27.5,8.5,47.4,41.8,49.9,73.9C215.3,88.4,209,86.4,202.4,86.4z M246.7,84.9c-6.4,0.2-12.5,2.4-17.6,6.4
					c-1.5-19.6-8.7-39.2-20.4-54.8c-4.5-5.9-9.3-11-14.5-15.1c39.1,11.7,66.7,40.8,71.1,69.3C259.7,86.7,253.3,84.7,246.7,84.9z"/>
			</g>
		</g>
	</g>
</g>
</svg>
