<?xml version="1.0" encoding="utf-8"?>
<!-- Generator: Adobe Illustrator 21.1.0, SVG Export Plug-In . SVG Version: 6.00 Build 0)  -->
<svg version="1.1" id="Layer_1" xmlns="http://www.w3.org/2000/svg" xmlns:xlink="http://www.w3.org/1999/xlink" x="0px" y="0px"
	 viewBox="0 0 200 200" style="enable-background:new 0 0 200 200;" xml:space="preserve">
<style type="text/css">
	.st0{fill:#00ABBE;}
	.st1{fill:#01AABD;}
</style>
<g>
	<path class="st0" d="M29,163.6c-1.6,0-2.9-1.3-2.9-2.9c0-14.6,11.9-26.4,26.4-26.4c1.6,0,2.9,1.3,2.9,2.9c0,1.6-1.3,2.9-2.9,2.9
		c-11.3,0-20.6,9.2-20.6,20.6C32,162.3,30.7,163.6,29,163.6z"/>
	<path class="st0" d="M158.2,163.6c-1.6,0-2.9-1.3-2.9-2.9c0-11.3-9.2-20.5-20.5-20.5c-1.6,0-2.9-1.3-2.9-2.9c0-1.6,1.3-2.9,2.9-2.9
		c14.6,0,26.4,11.8,26.4,26.4C161.1,162.3,159.8,163.6,158.2,163.6z"/>
	<path class="st0" d="M73.1,140.1l-20.5,0c-1.6,0-2.9-1.3-2.9-2.9c0-1.6,1.3-2.9,2.9-2.9l20.5,0c1.6,0,2.9,1.3,2.9,2.9
		C76,138.8,74.7,140.1,73.1,140.1z"/>
	<path class="st0" d="M134.7,140.1l-20.5,0c-1.6,0-2.9-1.3-2.9-2.9c0-1.6,1.3-2.9,2.9-2.9l20.5,0c1.6,0,2.9,1.3,2.9,2.9
		C137.6,138.8,136.3,140.1,134.7,140.1z"/>
	<path class="st0" d="M29,190c-1.6,0-2.9-1.3-2.9-2.9l0-26.4c0-1.6,1.3-2.9,2.9-2.9c1.6,0,2.9,1.3,2.9,2.9l0,26.4
		C32,188.7,30.7,190,29,190z"/>
	<path class="st0" d="M73.1,140.1c-1.6,0-2.9-1.3-2.9-2.9v-16.8c0-1.6,1.3-2.9,2.9-2.9s2.9,1.3,2.9,2.9v16.8
		C76,138.8,74.7,140.1,73.1,140.1z"/>
	<path class="st0" d="M114.1,140.1c-1.6,0-2.9-1.3-2.9-2.9v-16.8c0-1.6,1.3-2.9,2.9-2.9s2.9,1.3,2.9,2.9v16.8
		C117.1,138.8,115.8,140.1,114.1,140.1z"/>
	<path class="st0" d="M93.6,128.3c-25.9,0-47-21.1-47-47c0-1.6,1.3-2.9,2.9-2.9c1.6,0,2.9,1.3,2.9,2.9c0,22.7,18.4,41.1,41.1,41.1
		s41.1-18.4,41.1-41.1c0-1.6,1.3-2.9,2.9-2.9s2.9,1.3,2.9,2.9C140.6,107.3,119.5,128.3,93.6,128.3z"/>
	<path class="st0" d="M49.6,84.3c-1.6,0-2.9-1.3-2.9-2.9V60.8c0-1.6,1.3-2.9,2.9-2.9c1.6,0,2.9,1.3,2.9,2.9v20.6
		C52.5,83,51.2,84.3,49.6,84.3z"/>
	<path class="st0" d="M137.6,84.3c-1.6,0-2.9-1.3-2.9-2.9V71c0-1.6,1.3-2.9,2.9-2.9s2.9,1.3,2.9,2.9v10.4
		C140.6,83,139.3,84.3,137.6,84.3z"/>
	<path class="st0" d="M143.5,60.8c-1.6,0-2.9-1.3-2.9-2.9c0-24.3-19.8-44-44-44c-1.6,0-2.9-1.3-2.9-2.9c0-1.6,1.3-2.9,2.9-2.9
		c27.5,0,49.9,22.4,49.9,49.9C146.4,59.5,145.1,60.8,143.5,60.8z"/>
	<path class="st0" d="M49.6,63.8c-1.6,0-2.9-1.3-2.9-2.9c0-32.7,8.8-47.8,9.2-48.5c0.7-1.1,1.9-1.6,3.2-1.4l14.7,3.3
		c1.6,0.4,2.6,1.9,2.2,3.5c-0.4,1.6-1.9,2.6-3.5,2.2L60,17.3c-2.2,4.8-7.5,19-7.5,43.6C52.5,62.5,51.2,63.8,49.6,63.8z"/>
	<path class="st0" d="M73.1,20.2c-1,0-2-0.5-2.5-1.5c-0.8-1.4-0.3-3.2,1.1-4c7.6-4.4,16.2-6.7,25-6.7c1.6,0,2.9,1.3,2.9,2.9
		c0,1.6-1.3,2.9-2.9,2.9c-7.7,0-15.4,2-22,5.9C74.1,20,73.6,20.2,73.1,20.2z"/>
	<path class="st0" d="M143.5,75.5c-1.6,0-2.9-1.3-2.9-2.9V57.9c0-1.6,1.3-2.9,2.9-2.9s2.9,1.3,2.9,2.9v14.7
		C146.4,74.2,145.1,75.5,143.5,75.5z"/>
	<path class="st0" d="M143.5,75.5c-0.3,0-0.5,0-0.8-0.1L66.4,54.9c-1.6-0.4-2.5-2-2.1-3.6c0.4-1.6,2-2.5,3.6-2.1l76.3,20.5
		c1.6,0.4,2.5,2,2.1,3.6C146,74.7,144.8,75.5,143.5,75.5z"/>
	<path class="st0" d="M49.6,66.7c-0.9,0-1.9-0.5-2.4-1.3c-0.9-1.4-0.5-3.2,0.8-4.1l17.6-11.7c1.4-0.9,3.2-0.5,4.1,0.8
		c0.9,1.4,0.5,3.2-0.8,4.1L51.2,66.2C50.7,66.5,50.1,66.7,49.6,66.7z"/>
	<path class="st0" d="M93.6,148.9c-16.1,0-22.7-9.7-23-10.1c-0.9-1.4-0.5-3.2,0.8-4.1c1.4-0.9,3.2-0.5,4.1,0.8
		c0.2,0.3,5.4,7.5,18.1,7.5c13,0,18.1-7.4,18.1-7.5c0.9-1.4,2.7-1.7,4.1-0.8c1.4,0.9,1.7,2.7,0.8,4.1
		C116.3,139.2,109.7,148.9,93.6,148.9z"/>
	<path class="st0" d="M49.6,190c-1.6,0-2.9-1.3-2.9-2.9v-20.5c0-1.6,1.3-2.9,2.9-2.9c1.6,0,2.9,1.3,2.9,2.9V187
		C52.5,188.7,51.2,190,49.6,190z"/>
	<path class="st0" d="M137.6,190c-1.6,0-2.9-1.3-2.9-2.9v-20.5c0-1.6,1.3-2.9,2.9-2.9s2.9,1.3,2.9,2.9V187
		C140.6,188.7,139.3,190,137.6,190z"/>
	<g>
		<g>
			<g>
				<path class="st1" d="M164.4,105.4c-12.5,0-22.6,10.1-22.6,22.6c0,21.6,22.6,49.7,22.6,49.7S187,149.6,187,128
					C187,115.5,176.9,105.4,164.4,105.4z M164.4,140.5c-6.7,0-12.2-5.5-12.2-12.2c0-6.7,5.5-12.2,12.2-12.2
					c6.7,0,12.2,5.5,12.2,12.2C176.6,135,171.1,140.5,164.4,140.5z"/>
			</g>
		</g>
	</g>
</g>
</svg>
